<?xml version="1.0" encoding="utf-8"?>
<!-- Generator: Adobe Illustrator 27.0.0, SVG Export Plug-In . SVG Version: 6.00 Build 0)  -->
<svg version="1.1" id="Layer_1" xmlns="http://www.w3.org/2000/svg" xmlns:xlink="http://www.w3.org/1999/xlink" x="0px" y="0px"
	 viewBox="0 0 38 40" style="enable-background:new 0 0 38 40;" xml:space="preserve">
<style type="text/css">
	.st0{fill:#FAFAFA;}
</style>
<path class="st0" d="M37.2,28.8v0.4c-1.3,0-2.7-0.1-3.9-0.1c-1.2,0-2,0-3.1,0.1v-0.4c0.5,0,0.8-0.2,0.8-0.4c0-0.2-0.2-0.5-0.4-0.7
	l-7-9.1v-0.4c4.6-4.3,6.3-6.1,6.3-7.2c0-0.5-0.5-0.9-1.1-1.1V9.5c0.9,0,2.1,0.1,3.4,0.1c1.2,0,2.3,0,3.3-0.1V10
	c-2.1,0.5-3.5,1.6-8.6,6.5l4.8,6.1C35.4,27.6,36,28.6,37.2,28.8z M21.8,25.1v-8.8c0-5.8-3.4-6.9-6.1-6.9c-2.5,0-4.8,1-6.6,3.3v1.1
	c1.3-2,3-2.9,5-2.9c2.4,0,3.9,1.4,3.9,5.4v8.8c0,3.3-0.5,3.5-1.8,3.7v0.4c0.9,0,2.2-0.1,3.7-0.1c1.5,0,2.8,0,3.7,0.1v-0.4
	C22.4,28.6,21.8,28.4,21.8,25.1z M2.2,10.9c1.2,0.3,1.3,1,1.3,3v14.3c0,7,0,9-2.4,9.8l0.2,0.4c4.8-1.3,6.1-3.7,6.1-8.2V9.4
	c-1.4,0.7-3.3,1-5.1,1.1V10.9z M5.3,1.1H5.2C5.1,3.2,3.9,4.6,2,4.8v0.1c2,0.2,3.1,1.5,3.2,3.7h0.1c0.1-2.1,1.3-3.5,3.2-3.7V4.8
	C6.6,4.6,5.4,3.2,5.3,1.1z"/>
</svg>
