<?xml version="1.0" encoding="utf-8"?>
<!-- Generator: Adobe Illustrator 26.5.0, SVG Export Plug-In . SVG Version: 6.00 Build 0)  -->
<svg version="1.1" id="Layer_1" xmlns="http://www.w3.org/2000/svg" xmlns:xlink="http://www.w3.org/1999/xlink" x="0px" y="0px"
	 viewBox="0 0 38 35" style="enable-background:new 0 0 38 35;" xml:space="preserve">
<style type="text/css">
	.st0{fill:#150409;}
</style>
<path class="st0" d="M7.9,6.5v18.3c0,0.9-0.1,1.8-0.4,2.5c-0.2,0.8-0.5,1.5-0.8,2.1c-0.4,0.7-0.8,1.2-1.2,1.7
	c-0.4,0.5-0.9,1-1.4,1.4c-1.1,1-2.4,1.8-3.8,2.4l-0.2-0.4C1,34,1.8,33.3,2.5,32.4c0.6-0.7,1.1-1.7,1.7-2.9C4.7,28.4,5,27.1,5,25.4
	v-15c0-0.5-0.1-1-0.2-1.4C4.6,8.6,4.2,8.3,3.5,8.3V7.9L7.9,6.5z M4,2.1C4,1.5,4.2,1,4.6,0.6C5,0.2,5.5,0,6.1,0s1.1,0.2,1.5,0.6
	C8,1,8.2,1.5,8.2,2.1S8,3.2,7.6,3.6C7.2,4,6.7,4.2,6.1,4.2S5,4,4.6,3.6C4.2,3.2,4,2.7,4,2.1z M23.2,22.8c0,0.2,0,0.5,0.1,0.8
	c0.1,0.3,0.1,0.5,0.3,0.8c0.1,0.2,0.3,0.4,0.4,0.6c0.2,0.2,0.4,0.3,0.6,0.3v0.4h-5.8v-0.4c0.2,0,0.4-0.1,0.6-0.3s0.3-0.4,0.4-0.6
	c0.1-0.2,0.3-0.5,0.3-0.8c0.1-0.3,0.1-0.6,0.1-0.8v-8.3c0-1.1-0.1-2-0.4-2.8c-0.3-0.8-0.7-1.5-1.2-2c-0.5-0.5-1.1-0.9-1.7-1.2
	c-0.6-0.3-1.3-0.4-1.9-0.4c-0.7,0-1.3,0.1-2,0.4c-0.6,0.3-1.2,0.6-1.7,1.1c-0.5,0.4-0.9,0.9-1.2,1.5c-0.3,0.6-0.4,1.2-0.4,1.8v-4
	c0.2-0.2,0.5-0.5,0.8-0.8c0.3-0.3,0.7-0.6,1.2-0.8c0.5-0.3,1-0.5,1.6-0.6c0.6-0.2,1.4-0.3,2.2-0.3c1.4,0,2.6,0.2,3.6,0.7
	c1,0.5,1.8,1.1,2.4,1.9c0.6,0.7,1.1,1.6,1.3,2.5c0.3,0.9,0.4,1.8,0.4,2.6V22.8z M35.3,25.7c-0.5,0-1-0.1-1.4-0.3
	c-0.4-0.2-0.8-0.5-1.1-0.8c-0.4-0.3-0.7-0.7-1.1-1.1l-5.8-7.4L25,17.1V15l7.2-6.8c0.1-0.1,0.2-0.3,0.2-0.5c0-0.2-0.1-0.3-0.3-0.3V7
	h4v0.4c-0.2,0-0.4,0-0.6,0.1c-0.2,0.1-0.4,0.2-0.5,0.3c-0.2,0.1-0.4,0.3-0.6,0.4l-6.3,5.9l6.6,8.3c0.4,0.5,0.8,1,1.2,1.4
	c0.3,0.3,0.7,0.6,1,0.9c0.4,0.3,0.7,0.4,1,0.4v0.4H35.3z"/>
</svg>
