<svg width="1440" height="229" viewBox="0 0 1440 229" fill="none" xmlns="http://www.w3.org/2000/svg">
<path d="M730.325 230.122C544.72 327.589 325.388 436.158 94.1679 405.441C-146.775 373.432 38.3205 -15.1827 242.146 4.07128C429.508 21.7701 578.828 129.107 730.325 230.122ZM730.325 230.122C738.13 226.024 745.876 221.945 753.56 217.896C943.974 117.581 1225.59 10.425 1413.9 107.231C1602.21 204.037 1293.98 473.363 1032.85 390.65C924.194 356.236 826.818 294.461 730.325 230.122Z" stroke="#FBD504" stroke-width="2"/>
<path d="M725.503 235.556C539.898 333.023 320.565 441.592 89.3458 410.875C-151.597 378.866 33.4984 -9.7486 237.324 9.50536C424.686 27.2042 574.006 134.541 725.503 235.556ZM725.503 235.556C733.308 231.458 741.054 227.379 748.738 223.33C939.152 123.015 1220.77 15.8591 1409.08 112.665C1597.39 209.471 1289.16 478.797 1028.02 396.085C919.372 361.67 821.996 299.895 725.503 235.556Z" stroke="#F95F06" stroke-width="2"/>
</svg>
